# xmcd
#
# Track frame offsets:
#	150
#	17604
#	36533
#	53636
#	69294
#	90452
#	105353
#	116689
#	133042
#	148191
#	167886
#	186753
#	200982
#	215100
#	232777
#	250928
#	266057
#	282556
#
# Disc length: 3990 seconds
#
# Revision: 1
# Processed by: cddbd v1.5.2PL0 Copyright (c) Steve Scherf et al.
# Submitted via: audiograbber 1.83.01
#
DISCID=120f9412
DTITLE=Essential 450 Volume 10 - CBE1006
DYEAR=2011
DGENRE=Karaoke
TTITLE0=Gill, Vince - Tryin' To Get Over You
TTITLE1=Walker, Clay - This Womn And Man
TTITLE2=Yearwood, Trishia - I Need You
TTITLE3=Akins, Rhett - Don't Get Me Started
TTITLE4=Allan, Gary - Smoke Rings In The Dark
TTITLE5=Tucker, Tanya - Blood Red And Goin' Down
TTITLE6=Allan, Gary - Living In A House Full Of Love
TTITLE7=Chesney, Kenny - When I Close My Eyes
TTITLE8=Loveless, Patty and Dwight Yoakam - Send A Message To My Heart
TTITLE9=Keith, Toby - We Were In Love
TTITLE10=Jackson, Alan - I'll Go On Loving You
TTITLE11=Morgan, Lorrie - We Both Walk
TTITLE12=Allan, Gary - I'll Take Today
TTITLE13=Berry, John - She's Taken A Shine
TTITLE14=Hill, Faith - You Can't Lose Me
TTITLE15=Adkins, Trace - Lonely Won't Leave Me Alone
TTITLE16=Straight, George - Meanwhile
TTITLE17=Rimes, LeAnn - Nothin' New Under The Moon
EXTD=
EXTT0=
EXTT1=
EXTT2=
EXTT3=
EXTT4=
EXTT5=
EXTT6=
EXTT7=
EXTT8=
EXTT9=
EXTT10=
EXTT11=
EXTT12=
EXTT13=
EXTT14=
EXTT15=
EXTT16=
EXTT17=
PLAYORDER=
